<svg width="22" height="22" viewBox="0 0 22 22" fill="none" xmlns="http://www.w3.org/2000/svg">
<path fill-rule="evenodd" clip-rule="evenodd" d="M21.6252 0C18.0165 0 14.5942 1.60291 12.2839 4.37521L4.06489 14.2381L8.81089 7.11902L0.932893 10.4953C-0.0676067 10.9241 -0.318608 12.2276 0.450992 12.9973L2.98619 15.5324L1.69179 17.0857L4.53949 19.9333L6.09269 18.6389L8.62789 21.1741C9.39749 21.9437 10.7011 21.6927 11.1298 20.6923L14.5061 12.8143L7.38709 17.5603L17.25 9.34122C20.0223 7.03102 21.6252 3.60872 21.6252 0ZM13.7943 7.83112C14.5806 8.61742 15.8555 8.61742 16.6419 7.83112C17.4282 7.04472 17.4282 5.76982 16.6419 4.98352C15.8555 4.19713 14.5806 4.19713 13.7943 4.98352C13.0079 5.76982 13.0079 7.04472 13.7943 7.83112Z" fill="white"/>
</svg>
